<svg xmlns="http://www.w3.org/2000/svg" xmlns:xlink="http://www.w3.org/1999/xlink" id="&#x56FE;&#x5C42;_1" x="0px" y="0px" width="1000px" height="2000px" viewBox="0 0 1000 2000" xml:space="preserve">
<rect x="-3" y="-3" fill="#FEF8F2" width="1006" height="2006"></rect>
<circle fill="#1E4778" cx="500" cy="519.966" r="315.574"></circle>
<text transform="matrix(1 0 0 1 74.877 1280.7178)" fill="#1E4778" font-family="'SourceHanSansCN-Bold-GBpc-EUC-H'" font-size="144.6017">Shipping By</text>
<text transform="matrix(1 0 0 1 370.1499 1454.2393)" fill="#1E4778" font-family="'SourceHanSansCN-Bold-GBpc-EUC-H'" font-size="144.6017">Sea</text>
<path fill="#FFF8F2" d="M389.745,447.875h17.611c10.056,0,18.185,8.147,18.185,18.183v48.034h235.486  c10.045-0.003,18.187,8.138,18.188,18.178c0,3.459-0.981,6.849-2.842,9.767l-55.773,87.627  c-6.677,10.496-18.254,16.851-30.691,16.849h-221.9c-18.176-0.004-33.557-13.425-36.024-31.431l-11.028-80.325  c-1.354-9.777,5.343-18.836,15.069-20.434V466.06c0-9.938,7.969-18.034,17.89-18.184v-15.202  c-0.298-9.893,7.482-18.155,17.374-18.454c9.895-0.299,18.158,7.48,18.456,17.375c0.011,0.359,0.011,0.724,0,1.08L389.745,447.875  L389.745,447.875z M399.358,480.95h-19.276c-4.576,0-8.285,3.71-8.285,8.286c0,4.573,3.709,8.286,8.285,8.286h19.276  c4.568-0.003,8.273-3.709,8.271-8.281c0-4.569-3.703-8.271-8.271-8.273V480.95z M463.878,461.366h35.535  c5.021,0,9.093,4.074,9.093,9.092v17.482c0,5.019-4.072,9.092-9.093,9.092h-35.521c-5.021,0.009-9.099-4.057-9.104-9.075  c0-0.006,0-0.012,0-0.017v-17.482C454.787,465.438,458.859,461.366,463.878,461.366z M535.505,461.366h35.55  c5.021,0,9.097,4.074,9.097,9.092v17.482c0,5.019-4.072,9.092-9.097,9.092h-35.55c-5.021,0-9.094-4.071-9.094-9.092l0,0v-17.482  C526.411,465.438,530.485,461.366,535.505,461.366z M607.128,461.366h35.555c5.02,0,9.092,4.074,9.092,9.092v17.482  c0,5.019-4.072,9.092-9.092,9.092h-35.555c-5.021,0-9.089-4.071-9.089-9.092l0,0v-17.482  C598.039,465.438,602.111,461.366,607.128,461.366z M463.554,415.858h35.521c5.035,0,9.104,4.071,9.104,9.092v17.466  c0,5.018-4.069,9.091-9.092,9.091h-35.534c-5.021,0-9.093-4.068-9.093-9.091v-17.451c0-5.035,4.072-9.091,9.093-9.091V415.858  L463.554,415.858z M535.178,415.858h35.521c5.035,0,9.106,4.071,9.106,9.092v17.466c0,5.018-4.071,9.091-9.091,9.091h-35.537  c-5.021,0-9.091-4.068-9.091-9.091l0,0v-17.451c0-5.021,4.069-9.091,9.091-9.091l0,0V415.858z M606.804,415.858h35.556  c5.021,0,9.091,4.068,9.091,9.092l0,0v17.466c0,5.018-4.074,9.091-9.091,9.091h-35.556c-5.021,0-9.091-4.068-9.091-9.091l0,0  v-17.451c0-5.035,4.072-9.091,9.091-9.091V415.858L606.804,415.858z M463.912,369.455h35.55c5.021,0,9.094,4.073,9.094,9.091v17.466  c0,5.021-4.069,9.092-9.094,9.092h-35.534c-5.021,0-9.092-4.068-9.092-9.092v-17.466c0-5.018,4.073-9.091,9.092-9.091H463.912z   M535.554,369.455h35.568c5.017,0,9.091,4.073,9.091,9.091v17.466c0,5.021-4.074,9.092-9.091,9.092h-35.553  c-5.021,0-9.094-4.068-9.094-9.092l0,0v-17.466c0-5.018,4.072-9.091,9.094-9.091H535.554z M607.178,369.455h35.556  c5.019,0,9.091,4.073,9.091,9.091v17.466c0,5.021-4.072,9.092-9.091,9.092h-35.535c-5.021,0-9.094-4.068-9.094-9.092l0,0v-17.466  c0-5.018,4.072-9.091,9.094-9.091H607.178z"></path>
</svg>