<svg xmlns="http://www.w3.org/2000/svg" xmlns:xlink="http://www.w3.org/1999/xlink" id="&#x56FE;&#x5C42;_1" x="0px" y="0px" width="1000px" height="2000px" viewBox="0 0 1000 2000" xml:space="preserve">
<rect x="-3" y="-3" fill="#FEF8F2" width="1006" height="2006"></rect>
<circle fill="#1E4778" cx="500" cy="519.966" r="315.574"></circle>
<g>
	
		<text transform="matrix(1 0 0 1 74.877 1279.6074)" fill="#1E4778" font-family="'SourceHanSansCN-Bold-GBpc-EUC-H'" font-size="144.6017">Shipping By</text>
	
		<text transform="matrix(1 0 0 1 400.1548 1453.1289)" fill="#1E4778" font-family="'SourceHanSansCN-Bold-GBpc-EUC-H'" font-size="144.6017">Air</text>
</g>
<path fill="#FEF8F2" d="M667.202,547.309c-21.489,8.709-239.983,93.416-239.983,93.416s-60.486,27.129-105.243-46.009l49.676-27.657  c8.631,3.919,16.67,3.601,27.34-0.998l56.463-18.75l-84.693-168.067c0,0-17.189-36.498,42.306-18.679  c0,0,107.633,110.432,127.042,130.711c0,0,9.923,7.58,28.229,0l84.734-37.368c0,0,57.354-23.468,70.556,18.68  c13.898,44.217-34.979,66.017-56.416,74.724h-0.01V547.309z M312.45,581.217c-22.129-33.099-26.351-52.586-26.351-52.586  s4.57-40.488,42.327,0c11.019,11.839,22.728,19.947,30.167,26.598l-46.144,25.998L312.45,581.217L312.45,581.217z"></path>
</svg>