<svg xmlns="http://www.w3.org/2000/svg" xmlns:xlink="http://www.w3.org/1999/xlink" id="&#x56FE;&#x5C42;_1" x="0px" y="0px" width="1000px" height="2000px" viewBox="0 0 1000 2000" xml:space="preserve">
<rect x="-3" y="-3" fill="#FEF8F2" width="1006" height="2006"></rect>
<circle fill="#1E4778" cx="500" cy="519.966" r="315.574"></circle>
<g>
	
		<text transform="matrix(1 0 0 1 27.3779 1271.1953)" fill="#1E4778" font-family="'SourceHanSansCN-Bold-GBpc-EUC-H'" font-size="144.6017">International</text>
	
		<text transform="matrix(1 0 0 1 223.2354 1444.7168)" fill="#1E4778" font-family="'SourceHanSansCN-Bold-GBpc-EUC-H'" font-size="144.6017">Express</text>
</g>
<g>
	<g>
		<path fill="#FFF8F2" d="M631.247,574.153c-20.242,0-36.649,16.411-36.649,36.655c0,20.248,16.405,36.656,36.649,36.656    s36.651-16.409,36.651-36.656C667.898,590.563,651.491,574.153,631.247,574.153z"></path>
		<path fill="#FFF8F2" d="M692.854,497.332l-29.571-52.688c-6.047-7.288-10.129-13.235-19.851-13.235h-46.316v-39.708    c0-7.29-5.943-13.235-13.233-13.235H372.156c-7.288,0-13.233,5.945-13.233,13.235v11.018h-10.971    c-10.271,0-18.595,8.323-18.595,18.594s8.327,18.596,18.595,18.596h10.971v24.253h-27.14c-10.27,0-18.594,8.326-18.594,18.594    c0,10.27,8.324,18.595,18.594,18.595h27.14v32.609h-43.311c-10.268,0-18.593,8.322-18.593,18.595    c0,10.267,8.325,18.593,18.593,18.593h43.311v19.095c0,7.288,5.945,13.234,13.233,13.234h26.389    c3.245-22.801,22.705-40.455,46.393-40.455c23.688,0,43.149,17.654,46.394,40.455l92.477-0.013    c3.257-22.801,22.717-40.442,46.394-40.442c23.688,0,43.147,17.654,46.396,40.455h13.156c7.283,0,13.229-5.947,13.229-13.234    v-66.181C702.979,511.524,692.854,497.332,692.854,497.332z M610.35,524.063v-66.181h32.371c2.136,0,5.093,3.128,5.093,3.128    l27.862,51.808c2.465,3.633,5.146,7.938,5.146,11.245H610.35L610.35,524.063z"></path>
		<path fill="#FFF8F2" d="M445.419,574.153c-20.243,0-36.648,16.411-36.648,36.655c0,20.248,16.405,36.656,36.648,36.656    c20.244,0,36.649-16.409,36.649-36.656C482.069,590.563,465.664,574.153,445.419,574.153z"></path>
	</g>
</g>
</svg>